#!OML:ASF I:\Actors\actors\Patient Classification 2\Patient 1\Session 1\actor1.ASF
:FULLY-SPECIFIED
:DEGREES
844
root -0.445787 18.621 6.08605 -0.52006 -21.4631 -0.869497
lowerback 5.64865 -4.83954 -0.498446
upperback -1.6789 -6.4502 1.07797
thorax -4.7152 -3.167 2.00498
lowerneck 9.48841 -23.3676 -16.8415
upperneck -0.8595 -33.7425 21.6579
head 4.76925 -17.2023 6.62824
rclavicle -4.40432e-015 -5.56597e-015
rhumerus 13.1772 13.9691 -70.0349
rradius 88.6104
rwrist -4.30569
rhand -24.0705 -40.8132
rfingers 7.12502
rthumb 2.40926 -70.7794
lclavicle -4.40432e-015 -5.56597e-015
lhumerus -61.9353 -6.7496 94.65
lradius 68.5341
lwrist -0.908851
lhand -4.76083 -23.073
lfingers 7.12502
lthumb 21.0232 5.80754
rfemur 0 0 0
rtibia 0
rfoot 0 0
rtoes 0
lfemur 4.29016 3.03715 -15.78
ltibia 18.0845
lfoot -28.3598 20.39
ltoes -52.4198
845
root -0.44616 18.6207 6.08738 -0.521309 -21.4634 -0.886504
lowerback 5.64223 -4.83624 -0.475473
upperback -1.67056 -6.44441 1.06919
thorax -4.70659 -3.16507 1.9818
lowerneck 9.4716 -23.3717 -16.8001
upperneck -0.866341 -33.7428 21.6726
head 4.76593 -17.2021 6.62738
rclavicle -7.10034e-015 5.1684e-015
rhumerus 13.1774 13.9437 -70.0384
rradius 88.6155
rwrist -4.3101
rhand -24.3259 -40.8037
rfingers 7.12502
rthumb 2.16261 -70.7725
lclavicle -7.10034e-015 5.1684e-015
lhumerus -61.9603 -6.76032 94.6511
lradius 68.5265
lwrist -0.892455
lhand -4.84485 -23.0824
lfingers 7.12502
lthumb 20.9425 5.80701
rfemur 0 0 0
rtibia 0
rfoot 0 0
rtoes 0
lfemur 4.28294 3.03821 -15.7657
ltibia 18.1111
lfoot -28.3365 20.4344
ltoes -52.538
846
root -0.446572 18.6215 6.08907 -0.465442 -21.4208 -0.920597
lowerback 5.58755 -4.85526 -0.442029
upperback -1.68411 -6.46667 1.08558
thorax -4.69095 -3.17717 1.97783
lowerneck 9.46977 -23.3528 -16.818
upperneck -0.863268 -33.7225 21.7007
head 4.77186 -17.1923 6.63886
rclavicle -1.44498e-013 -7.95139e-016
rhumerus 13.1861 13.9329 -70.0251
rradius 88.6259
rwrist -4.32687
rhand -24.4186 -40.8943
rfingers 7.12502
rthumb 2.07311 -70.864
lclavicle -1.44498e-013 -7.95139e-016
lhumerus -62.0187 -6.74801 94.6789
lradius 68.5344
lwrist -0.878241
lhand -4.92459 -23.072
lfingers 7.12502
lthumb 20.8659 5.82592
rfemur 0 0 0
rtibia 0
rfoot 0 0
rtoes 0
lfemur 4.22118 3.02385 -15.7289
ltibia 18.1347
lfoot -28.3228 20.4108
ltoes -52.5651
847
root -0.446925 18.6217 6.08943 -0.444667 -21.3834 -0.924558
lowerback 5.57414 -4.87195 -0.452428
upperback -1.69459 -6.48893 1.10535
thorax -4.69017 -3.18766 2.00507
lowerneck 9.50081 -23.3206 -16.8525
upperneck -0.881229 -33.686 21.7389
head 4.76815 -17.1773 6.66272
rclavicle -8.18931e-014 -3.97569e-016
rhumerus 13.2308 13.9334 -69.9385
rradius 88.6769
rwrist -4.35572
rhand -24.5224 -41.2649
rfingers 7.12502
rthumb 1.97283 -71.2356
lclavicle -8.18931e-014 -3.97569e-016
lhumerus -62.0526 -6.72632 94.7118
lradius 68.5377
lwrist -0.863576
lhand -4.9764 -23.0661
lfingers 7.12502
lthumb 20.8161 5.83722
rfemur 0 0 0
rtibia 0
rfoot 0 0
rtoes 0
lfemur 4.18263 2.99553 -15.7208
ltibia 18.1585
lfoot -28.3172 20.3816
ltoes -52.5218
848
root -0.44712 18.6216 6.08964 -0.472477 -21.3645 -0.911006
lowerback 5.58297 -4.86723 -0.47467
upperback -1.67514 -6.48418 1.10672
thorax -4.6724 -3.18496 2.0178
lowerneck 9.46308 -23.2889 -16.862
upperneck -0.827466 -33.6507 21.7585
head 4.78936 -17.1566 6.6672
rclavicle 1.01877e-013 -3.97569e-016
rhumerus 13.315 13.8543 -69.7749
rradius 88.7322
rwrist -4.40343
rhand -23.5209 -40.6246
rfingers 7.12502
rthumb 2.94008 -70.5841
lclavicle 1.01877e-013 -3.97569e-016
lhumerus -62.0219 -6.74012 94.7191
lradius 68.5092
lwrist -0.892041
lhand -4.98971 -22.9553
lfingers 7.12502
lthumb 20.8033 5.94948
rfemur 0 0 0
rtibia 0
rfoot 0 0
rtoes 0
lfemur 4.19093 3.00914 -15.7245
ltibia 18.1794
lfoot -28.2778 20.3804
ltoes -52.5599
